<?xml version="1.0" encoding="UTF-8" standalone="no"?><!DOCTYPE svg PUBLIC "-//W3C//DTD SVG 1.1//EN" "http://www.w3.org/Graphics/SVG/1.1/DTD/svg11.dtd"><!-- Generated by graphviz version 2.40.1 (20161225.0304)
 --><!-- Title: rustc_areas Pages: 1 --><svg xmlns="http://www.w3.org/2000/svg" xmlns:xlink="http://www.w3.org/1999/xlink" width="790pt" height="1129pt" viewBox="0.00 0.00 790.00 1129.20">
<g id="graph0" class="graph" transform="scale(1 1) rotate(0) translate(36 1093.2)">
<title>rustc_areas</title>
<polygon fill="#ffffff" stroke="transparent" points="-36,36 -36,-1093.2 754,-1093.2 754,36 -36,36"/>
<g id="clust7" class="cluster">
<title>cluster_querified</title>
<polygon fill="#add8e6" stroke="#000000" stroke-dasharray="5,2" points="8,-308.8 8,-882.4 504,-882.4 504,-308.8 8,-308.8"/>
<text text-anchor="middle" x="469.1809" y="-865.8" font-family="Times,serif" font-size="14.00" fill="#000000">Querified</text>
</g>
<g id="clust8" class="cluster">
<title>cluster_trait_solving_dependent</title>
<polygon fill="#add8e6" stroke="#000000" points="132,-482.8 132,-849.6 496,-849.6 496,-482.8 132,-482.8"/>
<text text-anchor="middle" x="420.9351" y="-833" font-family="Times,serif" font-size="14.00" fill="#000000">Trait-solving dependent</text>
</g>
<g id="clust18" class="cluster">
<title>cluster_non_querified</title>
<polygon fill="#ffffe0" stroke="#000000" stroke-dasharray="5,2" points="39,-50 39,-300.8 439,-300.8 439,-50 39,-50"/>
<text text-anchor="middle" x="391.3506" y="-284.2" font-family="Times,serif" font-size="14.00" fill="#000000">Non-querified</text>
</g>
<g id="clust27" class="cluster">
<title>cluster_legend</title>
<polygon fill="none" stroke="#000000" points="454,-940.4 454,-1049.2 710,-1049.2 710,-940.4 454,-940.4"/>
<text text-anchor="middle" x="582" y="-1032.6" font-family="Times,serif" font-size="14.00" fill="#000000">Legend</text>
</g>
<!-- Executable -->
<g id="node1" class="node">
<title>Executable</title>
<ellipse fill="none" stroke="#000000" cx="148" cy="-982.4" rx="129.6491" ry="18"/>
<text text-anchor="middle" x="148" y="-978.2" font-family="Times,serif" font-size="14.00" fill="#000000">Executables, cdylibs, staticlibs</text>
</g>
<!-- LLVM -->
<g id="node4" class="node">
<title>LLVM</title>
<polygon fill="none" stroke="#000000" points="175.6575,-926.4 120.3425,-926.4 120.3425,-890.4 175.6575,-890.4 175.6575,-926.4"/>
<text text-anchor="middle" x="148" y="-904.2" font-family="Times,serif" font-size="14.00" fill="#000000">LLVM</text>
</g>
<!-- Executable&#45;&gt;LLVM -->
<g id="edge1" class="edge">
<title>Executable-&gt;LLVM</title>
<path fill="none" stroke="#006400" stroke-width="2" d="M148,-964.1079C148,-952.6375 148,-937.912 148,-926.4817"/>
</g>
<!-- GCC -->
<g id="node5" class="node">
<title>GCC</title>
<polygon fill="none" stroke="#000000" points="266,-926.4 212,-926.4 212,-890.4 266,-890.4 266,-926.4"/>
<text text-anchor="middle" x="239" y="-904.2" font-family="Times,serif" font-size="14.00" fill="#000000">GCC</text>
</g>
<!-- Executable&#45;&gt;GCC -->
<g id="edge2" class="edge">
<title>Executable-&gt;GCC</title>
<path fill="none" stroke="#006400" stroke-width="2" d="M170.0286,-964.4867C184.2308,-952.9376 202.6345,-937.9719 216.8589,-926.4049"/>
</g>
<!-- Cranelift -->
<g id="node6" class="node">
<title>Cranelift</title>
<polygon fill="none" stroke="#000000" points="367.7592,-926.4 302.2408,-926.4 302.2408,-890.4 367.7592,-890.4 367.7592,-926.4"/>
<text text-anchor="middle" x="335" y="-904.2" font-family="Times,serif" font-size="14.00" fill="#000000">Cranelift</text>
</g>
<!-- Executable&#45;&gt;Cranelift -->
<g id="edge3" class="edge">
<title>Executable-&gt;Cranelift</title>
<path fill="none" stroke="#006400" stroke-width="2" d="M191.3716,-965.2369C225.1424,-951.8731 271.3002,-933.6074 302.0791,-921.4275"/>
</g>
<!-- Libraries -->
<g id="node2" class="node">
<title>Libraries</title>
<ellipse fill="none" stroke="#000000" cx="370" cy="-982.4" rx="56.7793" ry="18"/>
<text text-anchor="middle" x="370" y="-978.2" font-family="Times,serif" font-size="14.00" fill="#000000">rlibs, dylibs</text>
</g>
<!-- Libraries&#45;&gt;LLVM -->
<g id="edge4" class="edge">
<title>Libraries-&gt;LLVM</title>
<path fill="none" stroke="#006400" stroke-width="2" d="M346.433,-965.9459C332.4107,-956.9612 313.9107,-946.4612 296,-940.4 252.6563,-925.7319 238.2822,-937.9288 194,-926.4 188.0246,-924.8443 181.7718,-922.7399 175.8701,-920.5184"/>
</g>
<!-- Libraries&#45;&gt;GCC -->
<g id="edge5" class="edge">
<title>Libraries-&gt;GCC</title>
<path fill="none" stroke="#006400" stroke-width="2" d="M342.2567,-966.6132C328.3747,-958.7243 311.3084,-949.0413 296,-940.4 286.3148,-934.9329 275.6918,-928.9621 266.2682,-923.6744"/>
</g>
<!-- Libraries&#45;&gt;Cranelift -->
<g id="edge6" class="edge">
<title>Libraries-&gt;Cranelift</title>
<path fill="none" stroke="#006400" stroke-width="2" d="M361.5275,-964.4867C356.0651,-952.9376 348.9867,-937.9719 343.5158,-926.4049"/>
</g>
<!-- Metadata Encoding -->
<g id="node9" class="node">
<title>Metadata Encoding</title>
<polygon fill="none" stroke="#000000" points="487.7422,-758.8 362.2578,-758.8 362.2578,-722.8 487.7422,-722.8 487.7422,-758.8"/>
<text text-anchor="middle" x="425" y="-736.6" font-family="Times,serif" font-size="14.00" fill="#000000">Metadata Encoding</text>
</g>
<!-- Libraries&#45;&gt;Metadata Encoding -->
<g id="edge10" class="edge">
<title>Libraries-&gt;Metadata Encoding</title>
<path fill="none" stroke="#006400" stroke-width="2" d="M375.5167,-964.329C378.7643,-953.4009 382.8409,-939.1594 386,-926.4 401.1141,-865.3547 415.3847,-792.0851 421.6571,-758.8134"/>
</g>
<!-- Source Code -->
<g id="node3" class="node">
<title>Source Code</title>
<ellipse fill="none" stroke="#000000" cx="239" cy="-18" rx="60.7966" ry="18"/>
<text text-anchor="middle" x="239" y="-13.8" font-family="Times,serif" font-size="14.00" fill="#000000">Source Code</text>
</g>
<!-- SSA Code Generation -->
<g id="node7" class="node">
<title>SSA Code Generation</title>
<polygon fill="none" stroke="#000000" points="280.4158,-816.8 139.5842,-816.8 139.5842,-780.8 280.4158,-780.8 280.4158,-816.8"/>
<text text-anchor="middle" x="210" y="-794.6" font-family="Times,serif" font-size="14.00" fill="#000000">SSA Code Generation</text>
</g>
<!-- LLVM&#45;&gt;SSA Code Generation -->
<g id="edge7" class="edge">
<title>LLVM-&gt;SSA Code Generation</title>
<path fill="none" stroke="#006400" stroke-width="2" d="M158.238,-890.3018C169.7256,-869.9947 188.2529,-837.2432 199.7468,-816.9251"/>
</g>
<!-- GCC&#45;&gt;SSA Code Generation -->
<g id="edge8" class="edge">
<title>GCC-&gt;SSA Code Generation</title>
<path fill="none" stroke="#006400" stroke-width="2" d="M234.2112,-890.3018C228.838,-869.9947 220.172,-837.2432 214.7959,-816.9251"/>
</g>
<!-- Monomorphization Collection -->
<g id="node8" class="node">
<title>Monomorphization Collection</title>
<polygon fill="none" stroke="#000000" points="325.925,-758.8 140.075,-758.8 140.075,-722.8 325.925,-722.8 325.925,-758.8"/>
<text text-anchor="middle" x="233" y="-736.6" font-family="Times,serif" font-size="14.00" fill="#000000">Monomorphization Collection</text>
</g>
<!-- Cranelift&#45;&gt;Monomorphization Collection -->
<g id="edge9" class="edge">
<title>Cranelift-&gt;Monomorphization Collection</title>
<path fill="none" stroke="#006400" stroke-width="2" d="M333.8026,-890.0737C331.2242,-863.4976 323.1485,-813.8342 298,-780.8 291.3383,-772.0494 282.1637,-764.7684 272.8058,-758.9237"/>
</g>
<!-- SSA Code Generation&#45;&gt;Monomorphization Collection -->
<g id="edge11" class="edge">
<title>SSA Code Generation-&gt;Monomorphization Collection</title>
<path fill="none" stroke="#0000ff" d="M217.1513,-780.7664C218.6941,-776.8757 220.3595,-772.6761 222.0107,-768.512"/>
<polygon fill="#0000ff" stroke="#0000ff" points="225.3411,-769.6082 225.7739,-759.0222 218.8341,-767.0278 225.3411,-769.6082"/>
</g>
<!-- Trait System -->
<g id="node14" class="node">
<title>Trait System</title>
<polygon fill="none" stroke="#000000" points="103.932,-758.8 16.068,-758.8 16.068,-722.8 103.932,-722.8 103.932,-758.8"/>
<text text-anchor="middle" x="60" y="-736.6" font-family="Times,serif" font-size="14.00" fill="#000000">Trait System</text>
</g>
<!-- SSA Code Generation&#45;&gt;Trait System -->
<g id="edge17" class="edge">
<title>SSA Code Generation-&gt;Trait System</title>
<path fill="none" stroke="#0000ff" d="M132.0019,-768.6407C125.7316,-766.2162 119.4893,-763.8025 113.4506,-761.4676"/>
<polygon fill="#0000ff" stroke="#0000ff" points="114.6376,-758.1741 104.0483,-757.832 112.113,-764.703 114.6376,-758.1741"/>
</g>
<!-- MIR Building, Transformations and Analysis -->
<g id="node10" class="node">
<title>MIR Building, Transformations and Analysis</title>
<polygon fill="none" stroke="#000000" points="426.1812,-700.8 155.8188,-700.8 155.8188,-664.8 426.1812,-664.8 426.1812,-700.8"/>
<text text-anchor="middle" x="291" y="-678.6" font-family="Times,serif" font-size="14.00" fill="#000000">MIR Building, Transformations and Analysis</text>
</g>
<!-- Monomorphization Collection&#45;&gt;MIR Building, Transformations and Analysis -->
<g id="edge12" class="edge">
<title>Monomorphization Collection-&gt;MIR Building, Transformations and Analysis</title>
<path fill="none" stroke="#0000ff" d="M251.0336,-722.7664C255.5728,-718.2272 260.5323,-713.2677 265.3655,-708.4345"/>
<polygon fill="#0000ff" stroke="#0000ff" points="268.1815,-710.5682 272.7778,-701.0222 263.2318,-705.6185 268.1815,-710.5682"/>
</g>
<!-- Metadata Encoding&#45;&gt;MIR Building, Transformations and Analysis -->
<g id="edge13" class="edge">
<title>Metadata Encoding-&gt;MIR Building, Transformations and Analysis</title>
<path fill="none" stroke="#0000ff" d="M383.3361,-722.7664C370.2273,-717.0924 355.601,-710.7616 341.9245,-704.8419"/>
<polygon fill="#0000ff" stroke="#0000ff" points="343.2057,-701.5827 332.6381,-700.8225 340.4251,-708.0068 343.2057,-701.5827"/>
</g>
<!-- THIR Building and Analysis -->
<g id="node11" class="node">
<title>THIR Building and Analysis</title>
<polygon fill="none" stroke="#000000" points="322.8714,-642.8 145.1286,-642.8 145.1286,-606.8 322.8714,-606.8 322.8714,-642.8"/>
<text text-anchor="middle" x="234" y="-620.6" font-family="Times,serif" font-size="14.00" fill="#000000">THIR Building and Analysis</text>
</g>
<!-- MIR Building, Transformations and Analysis&#45;&gt;THIR Building and Analysis -->
<g id="edge14" class="edge">
<title>MIR Building, Transformations and Analysis-&gt;THIR Building and Analysis</title>
<path fill="none" stroke="#0000ff" d="M273.2773,-664.7664C268.8164,-660.2272 263.9424,-655.2677 259.1926,-650.4345"/>
<polygon fill="#0000ff" stroke="#0000ff" points="261.4137,-647.7013 251.9081,-643.0222 256.4211,-652.6078 261.4137,-647.7013"/>
</g>
<!-- HIR Body Type&#45;checking -->
<g id="node12" class="node">
<title>HIR Body Type-checking</title>
<polygon fill="none" stroke="#000000" points="314.9031,-584.8 153.0969,-584.8 153.0969,-548.8 314.9031,-548.8 314.9031,-584.8"/>
<text text-anchor="middle" x="234" y="-562.6" font-family="Times,serif" font-size="14.00" fill="#000000">HIR Body Type-checking</text>
</g>
<!-- THIR Building and Analysis&#45;&gt;HIR Body Type&#45;checking -->
<g id="edge15" class="edge">
<title>THIR Building and Analysis-&gt;HIR Body Type-checking</title>
<path fill="none" stroke="#0000ff" d="M234,-606.7664C234,-603.0918 234,-599.1418 234,-595.2063"/>
<polygon fill="#0000ff" stroke="#0000ff" points="237.5001,-595.0222 234,-585.0222 230.5001,-595.0223 237.5001,-595.0222"/>
</g>
<!-- HIR Well&#45;formedness Checking -->
<g id="node13" class="node">
<title>HIR Well-formedness Checking</title>
<polygon fill="none" stroke="#000000" points="337.6615,-526.8 140.3385,-526.8 140.3385,-490.8 337.6615,-490.8 337.6615,-526.8"/>
<text text-anchor="middle" x="239" y="-504.6" font-family="Times,serif" font-size="14.00" fill="#000000">HIR Well-formedness Checking</text>
</g>
<!-- HIR Body Type&#45;checking&#45;&gt;HIR Well&#45;formedness Checking -->
<g id="edge16" class="edge">
<title>HIR Body Type-checking-&gt;HIR Well-formedness Checking</title>
<path fill="none" stroke="#0000ff" d="M235.5546,-548.7664C235.8714,-545.0918 236.2119,-541.1418 236.5512,-537.2063"/>
<polygon fill="#0000ff" stroke="#0000ff" points="240.0572,-537.2859 237.4291,-527.0222 233.0831,-536.6846 240.0572,-537.2859"/>
</g>
<!-- HIR Type Lowering -->
<g id="node15" class="node">
<title>HIR Type Lowering</title>
<polygon fill="none" stroke="#000000" points="304.2963,-468.8 173.7037,-468.8 173.7037,-432.8 304.2963,-432.8 304.2963,-468.8"/>
<text text-anchor="middle" x="239" y="-446.6" font-family="Times,serif" font-size="14.00" fill="#000000">HIR Type Lowering</text>
</g>
<!-- HIR Well&#45;formedness Checking&#45;&gt;HIR Type Lowering -->
<g id="edge18" class="edge">
<title>HIR Well-formedness Checking-&gt;HIR Type Lowering</title>
<path fill="none" stroke="#0000ff" d="M239,-490.7664C239,-487.0918 239,-483.1418 239,-479.2063"/>
<polygon fill="#0000ff" stroke="#0000ff" points="242.5001,-479.0222 239,-469.0222 235.5001,-479.0223 242.5001,-479.0222"/>
</g>
<!-- Trait System&#45;&gt;MIR Building, Transformations and Analysis -->
<g id="edge21" class="edge">
<title>Trait System-&gt;MIR Building, Transformations and Analysis</title>
<path fill="none" stroke="#0000ff" d="M103.9912,-727.9609C110.3565,-726.1818 116.8375,-724.4131 123,-722.8 148.4777,-716.1308 176.2507,-709.329 201.7443,-703.2707"/>
<polygon fill="#0000ff" stroke="#0000ff" points="202.8401,-706.6081 211.7655,-700.8995 201.2282,-699.7962 202.8401,-706.6081"/>
</g>
<!-- Trait System&#45;&gt;THIR Building and Analysis -->
<g id="edge22" class="edge">
<title>Trait System-&gt;THIR Building and Analysis</title>
<path fill="none" stroke="#0000ff" d="M75.1404,-722.5097C89.8068,-705.719 113.3871,-681.0526 138,-664.8 148.1232,-658.1154 159.5452,-652.1843 170.8871,-647.0717"/>
<polygon fill="#0000ff" stroke="#0000ff" points="172.577,-650.1541 180.3651,-642.971 169.7974,-643.7296 172.577,-650.1541"/>
</g>
<!-- Trait System&#45;&gt;HIR Body Type&#45;checking -->
<g id="edge23" class="edge">
<title>Trait System-&gt;HIR Body Type-checking</title>
<path fill="none" stroke="#0000ff" d="M63.9284,-722.528C71.1608,-693.4427 89.4119,-636.8415 127,-606.8 135.8668,-599.7134 146.1171,-593.7962 156.6892,-588.8797"/>
<polygon fill="#0000ff" stroke="#0000ff" points="158.2631,-592.0119 166.036,-584.8125 155.47,-585.5933 158.2631,-592.0119"/>
</g>
<!-- Trait System&#45;&gt;HIR Well&#45;formedness Checking -->
<g id="edge24" class="edge">
<title>Trait System-&gt;HIR Well-formedness Checking</title>
<path fill="none" stroke="#0000ff" d="M58.5004,-722.7396C57.6746,-707.1829 57.5754,-684.2332 62,-664.8 68.2713,-637.2556 73.2051,-630.8652 88,-606.8 105.3766,-578.5353 108.1608,-568.3063 135,-548.8 144.6581,-541.7806 155.7042,-535.8209 166.9076,-530.8178"/>
<polygon fill="#0000ff" stroke="#0000ff" points="168.4788,-533.9537 176.3285,-526.838 165.7547,-527.5054 168.4788,-533.9537"/>
</g>
<!-- HIR Building -->
<g id="node16" class="node">
<title>HIR Building</title>
<polygon fill="none" stroke="#000000" points="285.113,-410.8 192.887,-410.8 192.887,-374.8 285.113,-374.8 285.113,-410.8"/>
<text text-anchor="middle" x="239" y="-388.6" font-family="Times,serif" font-size="14.00" fill="#000000">HIR Building</text>
</g>
<!-- HIR Type Lowering&#45;&gt;HIR Building -->
<g id="edge19" class="edge">
<title>HIR Type Lowering-&gt;HIR Building</title>
<path fill="none" stroke="#0000ff" d="M239,-432.7664C239,-429.0918 239,-425.1418 239,-421.2063"/>
<polygon fill="#0000ff" stroke="#0000ff" points="242.5001,-421.0222 239,-411.0222 235.5001,-421.0223 242.5001,-421.0222"/>
</g>
<!-- Late Name Resolution -->
<g id="node17" class="node">
<title>Late Name Resolution</title>
<polygon fill="none" stroke="#000000" points="309.9664,-352.8 168.0336,-352.8 168.0336,-316.8 309.9664,-316.8 309.9664,-352.8"/>
<text text-anchor="middle" x="239" y="-330.6" font-family="Times,serif" font-size="14.00" fill="#000000">Late Name Resolution</text>
</g>
<!-- HIR Building&#45;&gt;Late Name Resolution -->
<g id="edge20" class="edge">
<title>HIR Building-&gt;Late Name Resolution</title>
<path fill="none" stroke="#ff0000" stroke-dasharray="5,2" d="M239,-364.5954C239,-360.6605 239,-356.7061 239,-353.0222"/>
<polygon fill="#ff0000" stroke="#ff0000" points="235.5001,-364.7663 239,-374.7664 242.5001,-364.7664 235.5001,-364.7663"/>
</g>
<!-- AST Validation -->
<g id="node18" class="node">
<title>AST Validation</title>
<polygon fill="none" stroke="#000000" points="291.54,-268 186.46,-268 186.46,-232 291.54,-232 291.54,-268"/>
<text text-anchor="middle" x="239" y="-245.8" font-family="Times,serif" font-size="14.00" fill="#000000">AST Validation</text>
</g>
<!-- Late Name Resolution&#45;&gt;AST Validation -->
<g id="edge25" class="edge">
<title>Late Name Resolution-&gt;AST Validation</title>
<path fill="none" stroke="#ff0000" stroke-dasharray="5,2" d="M239,-306.3344C239,-293.6946 239,-279.196 239,-268.0731"/>
<polygon fill="#ff0000" stroke="#ff0000" points="235.5001,-306.3996 239,-316.3997 242.5001,-306.3997 235.5001,-306.3996"/>
</g>
<!-- Macro Expansion, Metadata Loading and Early Name Resolution -->
<g id="node19" class="node">
<title>Macro Expansion, Metadata Loading and Early Name Resolution</title>
<polygon fill="none" stroke="#000000" points="430.5058,-210 47.4942,-210 47.4942,-174 430.5058,-174 430.5058,-210"/>
<text text-anchor="middle" x="239" y="-187.8" font-family="Times,serif" font-size="14.00" fill="#000000">Macro Expansion, Metadata Loading and Early Name Resolution</text>
</g>
<!-- AST Validation&#45;&gt;Macro Expansion, Metadata Loading and Early Name Resolution -->
<g id="edge26" class="edge">
<title>AST Validation-&gt;Macro Expansion, Metadata Loading and Early Name Resolution</title>
<path fill="none" stroke="#ff0000" stroke-dasharray="5,2" d="M239,-221.7954C239,-217.8605 239,-213.9061 239,-210.2222"/>
<polygon fill="#ff0000" stroke="#ff0000" points="235.5001,-221.9663 239,-231.9664 242.5001,-221.9664 235.5001,-221.9663"/>
</g>
<!-- Parsing -->
<g id="node20" class="node">
<title>Parsing</title>
<polygon fill="none" stroke="#000000" points="267.993,-152 210.007,-152 210.007,-116 267.993,-116 267.993,-152"/>
<text text-anchor="middle" x="239" y="-129.8" font-family="Times,serif" font-size="14.00" fill="#000000">Parsing</text>
</g>
<!-- Macro Expansion, Metadata Loading and Early Name Resolution&#45;&gt;Parsing -->
<g id="edge27" class="edge">
<title>Macro Expansion, Metadata Loading and Early Name Resolution-&gt;Parsing</title>
<path fill="none" stroke="#ff0000" stroke-dasharray="5,2" d="M225.5045,-163.7954C225.4598,-159.8605 225.7468,-155.9061 226.3653,-152.2222"/>
<polygon fill="#ff0000" stroke="#ff0000" points="222.0362,-164.3108 226.3973,-173.9664 229.0094,-163.6986 222.0362,-164.3108"/>
</g>
<!-- Parsing&#45;&gt;Macro Expansion, Metadata Loading and Early Name Resolution -->
<g id="edge28" class="edge">
<title>Parsing-&gt;Macro Expansion, Metadata Loading and Early Name Resolution</title>
<path fill="none" stroke="#ff0000" stroke-dasharray="5,2" d="M252.4975,-162.4063C252.5308,-166.3418 252.2326,-170.2918 251.6027,-173.9664"/>
<polygon fill="#ff0000" stroke="#ff0000" points="255.9665,-161.8911 251.6347,-152.2222 248.9914,-162.482 255.9665,-161.8911"/>
</g>
<!-- Tokenization -->
<g id="node21" class="node">
<title>Tokenization</title>
<polygon fill="none" stroke="#000000" points="283.8683,-94 194.1317,-94 194.1317,-58 283.8683,-58 283.8683,-94"/>
<text text-anchor="middle" x="239" y="-71.8" font-family="Times,serif" font-size="14.00" fill="#000000">Tokenization</text>
</g>
<!-- Parsing&#45;&gt;Tokenization -->
<g id="edge29" class="edge">
<title>Parsing-&gt;Tokenization</title>
<path fill="none" stroke="#ff0000" stroke-dasharray="5,2" d="M239,-105.7954C239,-101.8605 239,-97.9061 239,-94.2222"/>
<polygon fill="#ff0000" stroke="#ff0000" points="235.5001,-105.9663 239,-115.9664 242.5001,-105.9664 235.5001,-105.9663"/>
</g>
<!-- Tokenization&#45;&gt;Source Code -->
<g id="edge30" class="edge">
<title>Tokenization-&gt;Source Code</title>
<path fill="none" stroke="#ff0000" stroke-dasharray="5,2" d="M239,-47.7954C239,-43.8605 239,-39.9061 239,-36.2222"/>
<polygon fill="#ff0000" stroke="#ff0000" points="235.5001,-47.9663 239,-57.9664 242.5001,-47.9664 235.5001,-47.9663"/>
</g>
<!-- key -->
<g id="node22" class="node">
<title>key</title>
<text text-anchor="start" x="487.2762" y="-997.8" font-family="Times,serif" font-size="14.00" fill="#000000">Pull-based Dependency </text>
<text text-anchor="start" x="482.6128" y="-977.8" font-family="Times,serif" font-size="14.00" fill="#000000">Push-based Dependency </text>
<text text-anchor="start" x="472.9435" y="-957.8" font-family="Times,serif" font-size="14.00" fill="#000000">Code Generation Pathway </text>
</g>
<!-- key2 -->
<g id="node23" class="node">
<title>key2</title>
<text text-anchor="start" x="683.9197" y="-997.8" font-family="Times,serif" font-size="14.00" fill="#000000"> </text>
<text text-anchor="start" x="683.9197" y="-977.8" font-family="Times,serif" font-size="14.00" fill="#000000"> </text>
<text text-anchor="start" x="683.9197" y="-957.8" font-family="Times,serif" font-size="14.00" fill="#000000"> </text>
</g>
<!-- key&#45;&gt;key2 -->
<g id="edge31" class="edge">
<title>key:e-&gt;key2:w</title>
<path fill="none" stroke="#0000ff" d="M630,-1002.4C649.3194,-1002.4 656.5265,-1002.4 671.8716,-1002.4"/>
<polygon fill="#0000ff" stroke="#0000ff" points="672,-1005.9001 682,-1002.4 672,-998.9001 672,-1005.9001"/>
</g>
<!-- key&#45;&gt;key2 -->
<g id="edge32" class="edge">
<title>key:e-&gt;key2:w</title>
<path fill="none" stroke="#ff0000" stroke-dasharray="5,2" d="M630,-982.4C649.3194,-982.4 656.5265,-982.4 671.8716,-982.4"/>
<polygon fill="#ff0000" stroke="#ff0000" points="672,-985.9001 682,-982.4 672,-978.9001 672,-985.9001"/>
</g>
<!-- key&#45;&gt;key2 -->
<g id="edge33" class="edge">
<title>key:e-&gt;key2:w</title>
<path fill="none" stroke="#006400" stroke-width="2" d="M630,-962.4C649.3194,-962.4 656.5265,-962.4 671.8716,-962.4"/>
<polygon fill="#006400" stroke="#006400" stroke-width="2" points="672,-965.9001 682,-962.4 672,-958.9001 672,-965.9001"/>
</g>
</g>
</svg>