<?xml version="1.0" encoding="UTF-8" standalone="no"?><!DOCTYPE svg PUBLIC "-//W3C//DTD SVG 1.1//EN" "http://www.w3.org/Graphics/SVG/1.1/DTD/svg11.dtd"><!-- Generated by graphviz version 2.40.1 (20161225.0304)
 --><!-- Title: mir_transformations Pages: 1 --><svg xmlns="http://www.w3.org/2000/svg" xmlns:xlink="http://www.w3.org/1999/xlink" width="680pt" height="533pt" viewBox="0.00 0.00 680.00 533.20">
<g id="graph0" class="graph" transform="scale(1 1) rotate(0) translate(36 497.2)">
<title>mir_transformations</title>
<polygon fill="#ffffff" stroke="transparent" points="-36,36 -36,-497.2 644,-497.2 644,36 -36,36"/>
<text text-anchor="middle" x="304" y="-8.2" font-family="Times,serif" font-size="14.00" fill="#000000">Mid-level Intermediate Representation (MIR) Dialects and Phases</text>
<g id="clust1" class="cluster">
<title>cluster_built</title>
<polygon fill="#ffffe0" stroke="#000000" stroke-width="2" points="8,-376.4 8,-453.2 384,-453.2 384,-376.4 8,-376.4"/>
<text text-anchor="middle" x="51.9653" y="-436.6" font-family="Times,serif" font-size="14.00" fill="#000000">Built Dialect</text>
</g>
<g id="clust2" class="cluster">
<title>cluster_analysis</title>
<polygon fill="#add8e6" stroke="#000000" stroke-width="2" points="8,-233.6 8,-368.4 384,-368.4 384,-233.6 8,-233.6"/>
<text text-anchor="middle" x="62.4569" y="-351.8" font-family="Times,serif" font-size="14.00" fill="#000000">Analysis Dialect</text>
</g>
<g id="clust3" class="cluster">
<title>cluster_runtime</title>
<polygon fill="#c1ffc1" stroke="#000000" stroke-width="2" points="8,-32.8 8,-225.6 384,-225.6 384,-32.8 8,-32.8"/>
<text text-anchor="middle" x="62.0726" y="-209" font-family="Times,serif" font-size="14.00" fill="#000000">Runtime Dialect</text>
</g>
<g id="clust4" class="cluster">
<title>cluster_legend</title>
<polygon fill="none" stroke="#000000" points="404,-376.4 404,-453.2 600,-453.2 600,-376.4 404,-376.4"/>
<text text-anchor="middle" x="502" y="-436.6" font-family="Times,serif" font-size="14.00" fill="#000000">Legend</text>
</g>
<!-- built -->
<g id="node1" class="node">
<title>built</title>
<polygon fill="none" stroke="#000000" points="376,-420.4 16,-420.4 16,-384.4 376,-384.4 376,-420.4"/>
<text text-anchor="middle" x="196" y="-398.2" font-family="Times,serif" font-size="14.00" fill="#000000">No Distinct Phases</text>
</g>
<!-- analysis_initial -->
<g id="node2" class="node">
<title>analysis_initial</title>
<polygon fill="none" stroke="#000000" points="376,-335.6 16,-335.6 16,-299.6 376,-299.6 376,-335.6"/>
<text text-anchor="middle" x="196" y="-313.4" font-family="Times,serif" font-size="14.00" fill="#000000">Initial</text>
</g>
<!-- built&#45;&gt;analysis_initial -->
<g id="edge1" class="edge">
<title>built-&gt;analysis_initial</title>
<path fill="none" stroke="#0000ff" d="M196,-383.9997C196,-372.8112 196,-358.2983 196,-345.6954"/>
<polygon fill="#0000ff" stroke="#0000ff" points="199.5001,-345.6731 196,-335.6731 192.5001,-345.6731 199.5001,-345.6731"/>
</g>
<!-- analysis_post_cleanup -->
<g id="node3" class="node">
<title>analysis_post_cleanup</title>
<polygon fill="none" stroke="#000000" points="376,-277.6 16,-277.6 16,-241.6 376,-241.6 376,-277.6"/>
<text text-anchor="middle" x="196" y="-255.4" font-family="Times,serif" font-size="14.00" fill="#000000">Post Cleanup</text>
</g>
<!-- analysis_initial&#45;&gt;analysis_post_cleanup -->
<g id="edge3" class="edge">
<title>analysis_initial-&gt;analysis_post_cleanup</title>
<path fill="none" stroke="#0000ff" d="M196,-299.5664C196,-295.8918 196,-291.9418 196,-288.0063"/>
<polygon fill="#0000ff" stroke="#0000ff" points="199.5001,-287.8222 196,-277.8222 192.5001,-287.8223 199.5001,-287.8222"/>
</g>
<!-- runtime_initial -->
<g id="node4" class="node">
<title>runtime_initial</title>
<polygon fill="none" stroke="#000000" points="376,-192.8 16,-192.8 16,-156.8 376,-156.8 376,-192.8"/>
<text text-anchor="middle" x="196" y="-170.6" font-family="Times,serif" font-size="14.00" fill="#000000">Initial</text>
</g>
<!-- analysis_post_cleanup&#45;&gt;runtime_initial -->
<g id="edge2" class="edge">
<title>analysis_post_cleanup-&gt;runtime_initial</title>
<path fill="none" stroke="#0000ff" d="M196,-241.1997C196,-230.0112 196,-215.4983 196,-202.8954"/>
<polygon fill="#0000ff" stroke="#0000ff" points="199.5001,-202.8731 196,-192.8731 192.5001,-202.8731 199.5001,-202.8731"/>
</g>
<!-- runtime_post_cleanup -->
<g id="node5" class="node">
<title>runtime_post_cleanup</title>
<polygon fill="none" stroke="#000000" points="376,-134.8 16,-134.8 16,-98.8 376,-98.8 376,-134.8"/>
<text text-anchor="middle" x="196" y="-112.6" font-family="Times,serif" font-size="14.00" fill="#000000">Post Cleanup</text>
</g>
<!-- runtime_initial&#45;&gt;runtime_post_cleanup -->
<g id="edge4" class="edge">
<title>runtime_initial-&gt;runtime_post_cleanup</title>
<path fill="none" stroke="#0000ff" d="M196,-156.7664C196,-153.0918 196,-149.1418 196,-145.2063"/>
<polygon fill="#0000ff" stroke="#0000ff" points="199.5001,-145.0222 196,-135.0222 192.5001,-145.0223 199.5001,-145.0222"/>
</g>
<!-- runtime_optimized -->
<g id="node6" class="node">
<title>runtime_optimized</title>
<polygon fill="none" stroke="#000000" points="376,-76.8 16,-76.8 16,-40.8 376,-40.8 376,-76.8"/>
<text text-anchor="middle" x="196" y="-54.6" font-family="Times,serif" font-size="14.00" fill="#000000">Optimized</text>
</g>
<!-- runtime_post_cleanup&#45;&gt;runtime_optimized -->
<g id="edge5" class="edge">
<title>runtime_post_cleanup-&gt;runtime_optimized</title>
<path fill="none" stroke="#0000ff" d="M196,-98.7664C196,-95.0918 196,-91.1418 196,-87.2063"/>
<polygon fill="#0000ff" stroke="#0000ff" points="199.5001,-87.0222 196,-77.0222 192.5001,-87.0223 199.5001,-87.0222"/>
</g>
<!-- key -->
<g id="node7" class="node">
<title>key</title>
<text text-anchor="start" x="422.8797" y="-397.8" font-family="Times,serif" font-size="14.00" fill="#000000">Transformation </text>
</g>
<!-- key2 -->
<g id="node8" class="node">
<title>key2</title>
<text text-anchor="start" x="573.9197" y="-397.8" font-family="Times,serif" font-size="14.00" fill="#000000"> </text>
</g>
<!-- key&#45;&gt;key2 -->
<g id="edge6" class="edge">
<title>key:e-&gt;key2:w</title>
<path fill="none" stroke="#0000ff" d="M520,-402.4C539.3194,-402.4 546.5265,-402.4 561.8716,-402.4"/>
<polygon fill="#0000ff" stroke="#0000ff" points="562,-405.9001 572,-402.4 562,-398.9001 562,-405.9001"/>
</g>
</g>
</svg>